<svg xmlns="http://www.w3.org/2000/svg" viewBox="0 0 800 500" width="800" height="500">
  <defs>
    <linearGradient id="skyPark" x1="0" y1="0" x2="0" y2="1">
      <stop offset="0%" stop-color="#64b5f6"/>
      <stop offset="100%" stop-color="#bbdefb"/>
    </linearGradient>
    <linearGradient id="grassG" x1="0" y1="0" x2="0" y2="1">
      <stop offset="0%" stop-color="#66bb6a"/>
      <stop offset="100%" stop-color="#388e3c"/>
    </linearGradient>
    <linearGradient id="pathG" x1="0" y1="0" x2="1" y2="0">
      <stop offset="0%" stop-color="#bcaaa4"/>
      <stop offset="100%" stop-color="#a1887f"/>
    </linearGradient>
    <linearGradient id="canopyG" x1="0" y1="0" x2="0" y2="1">
      <stop offset="0%" stop-color="#1565c0"/>
      <stop offset="100%" stop-color="#0d47a1"/>
    </linearGradient>
  </defs>

  <!-- Sky -->
  <rect width="800" height="500" fill="url(#skyPark)"/>

  <!-- Sun -->
  <circle cx="100" cy="80" r="48" fill="#fff176" opacity="0.95"/>
  <g stroke="#fff176" stroke-width="3" stroke-linecap="round" opacity="0.6">
    <line x1="100" y1="18" x2="100" y2="30"/>
    <line x1="100" y1="130" x2="100" y2="142"/>
    <line x1="38" y1="80" x2="50" y2="80"/>
    <line x1="150" y1="80" x2="162" y2="80"/>
    <line x1="56" y1="36" x2="65" y2="45"/>
    <line x1="135" y1="115" x2="144" y2="124"/>
    <line x1="144" y1="36" x2="135" y2="45"/>
    <line x1="65" y1="115" x2="56" y2="124"/>
  </g>

  <!-- Clouds -->
  <ellipse cx="300" cy="70" rx="70" ry="28" fill="white" opacity="0.85"/>
  <ellipse cx="345" cy="55" rx="55" ry="22" fill="white" opacity="0.85"/>
  <ellipse cx="560" cy="55" rx="60" ry="24" fill="white" opacity="0.8"/>
  <ellipse cx="600" cy="43" rx="45" ry="18" fill="white" opacity="0.8"/>

  <!-- Ground -->
  <rect x="0" y="360" width="800" height="140" fill="url(#grassG)"/>

  <!-- Park path -->
  <ellipse cx="400" cy="430" rx="280" ry="40" fill="url(#pathG)" opacity="0.7"/>

  <!-- Trees -->
  <!-- Tree 1 -->
  <rect x="58" y="285" width="14" height="80" fill="#5d4037" rx="3"/>
  <circle cx="65" cy="265" r="45" fill="#2e7d32"/>
  <circle cx="45" cy="278" r="32" fill="#388e3c"/>
  <circle cx="85" cy="278" r="32" fill="#2e7d32"/>

  <!-- Tree 2 -->
  <rect x="718" y="290" width="14" height="75" fill="#5d4037" rx="3"/>
  <circle cx="725" cy="270" r="42" fill="#2e7d32"/>
  <circle cx="706" cy="282" r="30" fill="#388e3c"/>
  <circle cx="744" cy="282" r="30" fill="#2e7d32"/>

  <!-- Tree 3 (background) -->
  <rect x="168" y="305" width="10" height="60" fill="#5d4037" rx="2"/>
  <circle cx="173" cy="290" r="32" fill="#43a047"/>

  <!-- Flower Turbine 1 (left) -->
  <rect x="246" y="215" width="7" height="145" fill="#90a4ae" rx="2"/>
  <ellipse cx="249" cy="188" rx="11" ry="26" fill="#f48fb1" opacity="0.9" transform="rotate(0 249 215)"/>
  <ellipse cx="249" cy="188" rx="11" ry="26" fill="#f06292" opacity="0.85" transform="rotate(45 249 215)"/>
  <ellipse cx="249" cy="188" rx="11" ry="26" fill="#f48fb1" opacity="0.9" transform="rotate(90 249 215)"/>
  <ellipse cx="249" cy="188" rx="11" ry="26" fill="#f06292" opacity="0.85" transform="rotate(135 249 215)"/>
  <ellipse cx="249" cy="188" rx="11" ry="26" fill="#f48fb1" opacity="0.9" transform="rotate(180 249 215)"/>
  <ellipse cx="249" cy="188" rx="11" ry="26" fill="#f06292" opacity="0.85" transform="rotate(225 249 215)"/>
  <ellipse cx="249" cy="188" rx="11" ry="26" fill="#f48fb1" opacity="0.9" transform="rotate(270 249 215)"/>
  <ellipse cx="249" cy="188" rx="11" ry="26" fill="#f06292" opacity="0.85" transform="rotate(315 249 215)"/>
  <circle cx="249" cy="215" r="9" fill="white"/>
  <rect x="237" y="360" width="24" height="6" rx="2" fill="#78909c"/>

  <!-- Flower Turbine 2 (centre) -->
  <rect x="396" y="180" width="8" height="180" fill="#90a4ae" rx="2"/>
  <ellipse cx="400" cy="148" rx="14" ry="32" fill="#80cbc4" opacity="0.9" transform="rotate(0 400 180)"/>
  <ellipse cx="400" cy="148" rx="14" ry="32" fill="#4db6ac" opacity="0.85" transform="rotate(45 400 180)"/>
  <ellipse cx="400" cy="148" rx="14" ry="32" fill="#80cbc4" opacity="0.9" transform="rotate(90 400 180)"/>
  <ellipse cx="400" cy="148" rx="14" ry="32" fill="#4db6ac" opacity="0.85" transform="rotate(135 400 180)"/>
  <ellipse cx="400" cy="148" rx="14" ry="32" fill="#80cbc4" opacity="0.9" transform="rotate(180 400 180)"/>
  <ellipse cx="400" cy="148" rx="14" ry="32" fill="#4db6ac" opacity="0.85" transform="rotate(225 400 180)"/>
  <ellipse cx="400" cy="148" rx="14" ry="32" fill="#80cbc4" opacity="0.9" transform="rotate(270 400 180)"/>
  <ellipse cx="400" cy="148" rx="14" ry="32" fill="#4db6ac" opacity="0.85" transform="rotate(315 400 180)"/>
  <circle cx="400" cy="180" r="11" fill="white"/>
  <rect x="384" y="360" width="32" height="7" rx="2" fill="#78909c"/>

  <!-- Flower Turbine 3 (right) -->
  <rect x="550" y="220" width="7" height="140" fill="#90a4ae" rx="2"/>
  <ellipse cx="553" cy="193" rx="11" ry="26" fill="#ce93d8" opacity="0.9" transform="rotate(0 553 220)"/>
  <ellipse cx="553" cy="193" rx="11" ry="26" fill="#ba68c8" opacity="0.85" transform="rotate(45 553 220)"/>
  <ellipse cx="553" cy="193" rx="11" ry="26" fill="#ce93d8" opacity="0.9" transform="rotate(90 553 220)"/>
  <ellipse cx="553" cy="193" rx="11" ry="26" fill="#ba68c8" opacity="0.85" transform="rotate(135 553 220)"/>
  <ellipse cx="553" cy="193" rx="11" ry="26" fill="#ce93d8" opacity="0.9" transform="rotate(180 553 220)"/>
  <ellipse cx="553" cy="193" rx="11" ry="26" fill="#ba68c8" opacity="0.85" transform="rotate(225 553 220)"/>
  <ellipse cx="553" cy="193" rx="11" ry="26" fill="#ce93d8" opacity="0.9" transform="rotate(270 553 220)"/>
  <ellipse cx="553" cy="193" rx="11" ry="26" fill="#ba68c8" opacity="0.85" transform="rotate(315 553 220)"/>
  <circle cx="553" cy="220" r="9" fill="white"/>
  <rect x="541" y="360" width="24" height="6" rx="2" fill="#78909c"/>

  <!-- Solar canopy bench -->
  <!-- Posts -->
  <rect x="130" y="330" width="7" height="30" fill="#78909c" rx="2"/>
  <rect x="220" y="330" width="7" height="30" fill="#78909c" rx="2"/>
  <!-- Canopy panel -->
  <rect x="118" y="318" width="120" height="18" rx="3" fill="url(#canopyG)"/>
  <g stroke="#90caf9" stroke-width="1" opacity="0.5">
    <line x1="118" y1="323" x2="238" y2="323"/>
    <line x1="118" y1="329" x2="238" y2="329"/>
    <line x1="118" y1="335" x2="238" y2="335"/>
    <line x1="148" y1="318" x2="148" y2="336"/>
    <line x1="178" y1="318" x2="178" y2="336"/>
    <line x1="208" y1="318" x2="208" y2="336"/>
  </g>
  <!-- Bench seat -->
  <rect x="125" y="360" width="110" height="8" rx="2" fill="#8d6e63"/>
  <rect x="130" y="350" width="7" height="10" fill="#795548" rx="1"/>
  <rect x="220" y="350" width="7" height="10" fill="#795548" rx="1"/>

  <!-- Wi-Fi symbol (park amenity) -->
  <text x="175" y="410" text-anchor="middle" fill="white" font-size="18" opacity="0.85">📶</text>

  <!-- Label -->
  <rect x="185" y="452" width="430" height="38" rx="6" fill="#1b5e20" opacity="0.88"/>
  <text x="400" y="477" text-anchor="middle" fill="white" font-family="Arial, sans-serif" font-size="15" font-weight="bold">Public Parks — Flower Turbines &amp; Solar Canopies</text>
</svg>
